# AST/ASF file generated using VICON BodyLanguage
# -----------------------------------------------
:version 1.10
:name VICON
:units
  mass 1.0
  length 0.45
  angle deg
:documentation
   .ast/.asf automatically generated from VICON data using
   VICON BodyBuilder and BodyLanguage model FoxedUp or BRILLIANT.MOD
:root
   order TX TY TZ RX RY RZ
   axis XYZ
   position 0 0 0  
   orientation 0 0 0 
:bonedata
  begin
     id 1 
     name lhipjoint
     direction 0.722297 -0.617336 0.311742 
     length 2.6635 
     axis 0 0 0  XYZ
  end
  begin
     id 2 
     name lfemur
     direction 0.34202 -0.939693 0  
     length 7.39349  
     axis 0 0 20  XYZ
    dof rx ry rz
    limits (-160.0 20.0)
           (-70.0 70.0)
           (-60.0 70.0)
  end
  begin
     id 3 
     name ltibia
     direction 0.34202 -0.939693 0   
     length 7.36294   
     axis 0 0 20   XYZ
    dof rx
    limits (-10.0 170.0)
  end
  begin
     id 4 
     name lfoot
     direction 0.104879 -0.288152 0.951824   
     length 2.16981   
     axis -90 7.62852e-016 20   XYZ
    dof rx rz
    limits (-45.0 90.0)
           (-70.0 20.0)
  end
  begin
     id 5 
     name ltoes
     direction 1.53586e-011 -4.21895e-011 1   
     length 1.08218   
     axis -90 7.62852e-016 20   XYZ
    dof rx
    limits (-90.0 20.0)
  end
  begin
     id 6 
     name rhipjoint
     direction -0.75102 -0.589393 0.297631   
     length 2.78977  
     axis 0 0 0  XYZ 
  end
  begin
     id 7 
     name rfemur
     direction -0.34202 -0.939693 0   
     length 7.46076   
     axis 0 0 -20   XYZ
    dof rx ry rz
    limits (-160.0 20.0)
           (-70.0 70.0)
           (-70.0 60.0)
  end
  begin
     id 8 
     name rtibia
     direction -0.34202 -0.939693 0   
     length 7.31726   
     axis 0 0 -20   XYZ
    dof rx
    limits (-10.0 170.0)
 end
 begin
     id 9 
     name rfoot
     direction -0.107991 -0.296704 0.948844   
     length 2.09388  
     axis -90 -7.62852e-016 -20   XYZ
    dof rx rz
    limits (-45.0 90.0)
           (-20.0 70.0)
  end
  begin
     id 10 
     name rtoes
     direction -1.53559e-011 -4.21911e-011 1   
     length 1.04433   
     axis -90 -7.62852e-016 -20   XYZ
    dof rx
    limits (-90.0 20.0)
  end
  begin
     id 11 
     name lowerback
     direction 0.0165164 0.98272 0.184358   
     length 1.71896   
     axis 0 0 0   XYZ
    dof rx ry rz
    limits (-20.0 45.0)
           (-30.0 30.0)
           (-30.0 30.0)
  end
  begin
     id 12 
     name upperback
     direction -0.00887249 0.992297 0.123566   
     length 1.71504   
     axis 0 0 0   XYZ
    dof rx ry rz
    limits (-20.0 45.0)
           (-30.0 30.0)
           (-30.0 30.0)
  end
  begin
     id 13 
     name thorax
     direction -0.0157026 0.998908 0.0440032   
     length 1.77022   
     axis 0 0 0   XYZ
    dof rx ry rz
    limits (-20.0 45.0)
           (-30.0 30.0)
           (-30.0 30.0)
  end
  begin
     id 14 
     name lowerneck
     direction -0.0238856 0.998137 0.0561411   
     length 1.89341   
     axis 0 0 0   XYZ
    dof rx ry rz
    limits (-20.0 45.0)
           (-30.0 30.0)
           (-30.0 30.0)
  end
  begin
     id 15 
     name upperneck
     direction 0.0276574 0.952253 -0.304056   
     length 1.86999   
     axis 0 0 0   XYZ
    dof rx ry rz
    limits (-20.0 45.0)
           (-30.0 30.0)
           (-30.0 30.0)
  end
  begin
     id 16
     name head
     direction 0.00800083 0.994258 -0.106712  
     length 1.91492  
     axis 0 0 0   XYZ
    dof rx ry rz
    limits (-20.0 45.0)
           (-30.0 30.0)
           (-30.0 30.0)
  end
  begin
     id 17 
     name lclavicle
     direction 0.97203 0.225407 0.06595  
     length 3.34889  
     axis 0 0 0   XYZ
    dof ry rz
    limits (-20.0 10.0)
           (0.0 20.0)
  end
  begin
     id 18 
     name lhumerus
     direction 1 -4.48973e-011 2.20267e-027   
     length 4.85645   
     axis 180 -30 -90   XYZ
    dof rx ry rz
    limits (-60.0 90.0)
           (-90.0 90.0)
           (-90.0 90.0)
  end
  begin
     id 19
     name lradius
     direction 1 -4.4897e-011 4.60472e-027   
     length 2.79874   
     axis 180 -30 -90   XYZ
    dof rx
    limits (-10.0 170.0)
  end
  begin
     id 20
     name lwrist
     direction 1 -4.48952e-011 1.14928e-026   
     length 1.39937   
     axis -6.29373e-015 90 90   XYZ
    dof ry
    limits (-180.0 0.0)
 end
  begin
     id 21 
     name lhand
     direction 1 -4.48967e-011 2.29886e-026   
     length 0.573398   
     axis -1.46689e-014 90 90   XYZ
    dof rx rz
    limits (-90.0 90.0)
           (-45.0 45.0)
  end
  begin
     id 22 
     name lfingers
     direction 1 -4.48955e-011 4.59726e-026   
     length 0.462289   
     axis -2.93383e-014 90 90   XYZ
    dof rx
    limits (0.0 90.0)
  end
  begin
     id 23
     name lthumb
     direction 0.707107 -6.34866e-011 0.707107   
     length 0.663757   
     axis -90 45 5.69224e-014   XYZ
    dof rx rz
    limits (-45.0 45.0)
           (-45.0 45.0)
  end
  begin
     id 24 
     name rclavicle
     direction -0.981571 0.157346 0.108443   
     length 3.35257  
     axis 0 0 0   XYZ 
    dof ry rz
    limits (-10.0 20.0)
           (-20.0 0.0)
  end
  begin
     id 25 
     name rhumerus
     direction -1 -4.48967e-011 8.58308e-029  
     length 4.67018   
     axis 180 30 90   XYZ
    dof rx ry rz
    limits (-90.0 60.0)
           (-90.0 90.0)
           (-90.0 90.0)
  end
  begin
     id 26 
     name rradius
     direction -1 -4.48958e-011 4.52548e-027   
     length 2.65534   
     axis 180 30 90   XYZ
    dof rx
    limits (-10.0 170.0)
  end
  begin
     id 27 
     name rwrist
     direction -1 -4.48977e-011 1.14952e-026   
     length 1.32767   
     axis -6.29373e-015 -90 -90   XYZ
    dof ry
    limits (-180.0 0.0)
  end
  begin
     id 28
     name rhand
     direction -1 -4.48924e-011 2.29804e-026   
     length 0.594069   
     axis -1.46689e-014 -90 -90   XYZ
    dof rx rz
    limits (-90.0 90.0)
           (-45.0 45.0)
  end
  begin
     id 29
     name rfingers
     direction -1 -4.48998e-011 4.59888e-026   
     length 0.478954   
     axis -2.93383e-014 -90 -90   XYZ
    dof rx
    limits (0.0 90.0)
  end
  begin
     id 30
     name rthumb
     direction -0.707107 -6.34933e-011 0.707107   
     length 0.687685   
     axis -90 -45 -5.69224e-014   XYZ
    dof rx rz
    limits (-45.0 45.0)
           (-45.0 45.0)
  end
:hierarchy
  begin
    root lhipjoint rhipjoint lowerback
    lhipjoint lfemur
    lfemur ltibia
    ltibia lfoot
    lfoot ltoes
    rhipjoint rfemur
    rfemur rtibia
    rtibia rfoot
    rfoot rtoes
    lowerback upperback
    upperback thorax
    thorax lowerneck lclavicle rclavicle
    lowerneck upperneck
    upperneck head
    lclavicle lhumerus
    lhumerus lradius
    lradius lwrist
    lwrist lhand lthumb
    lhand lfingers
    rclavicle rhumerus
    rhumerus rradius
    rradius rwrist
    rwrist rhand rthumb
    rhand rfingers
  end

#!OML:ASF E:\pregnant2\Project 1\Capture day 1\Session 1\pregnant2.ASF
:FULLY-SPECIFIED
:DEGREES
480
root 7.38133 17.0979 21.4514 36.988 -2.67457 1.07321
lowerback -16.7958 0.659763 0.252166
upperback -14.6558 0.771096 -1.79407
thorax -6.37731 0.26218 -1.97171
lowerneck -15.6135 -1.27517 -1.09457
upperneck 27.746 -1.79796 0.910026
head 11.6643 -0.813114 0.262719
rclavicle 9.44227e-016 -5.36719e-015
rhumerus -55.4894 14.0818 -92.3493
rradius 33.3579
rwrist 3.87807
rhand -11.3984 -12.2085
rfingers 7.12502
rthumb 14.6367 318.328
lclavicle 9.44227e-016 -5.36719e-015
lhumerus -47.4838 -17.4056 91.4565
lradius 34.1587
lwrist 14.2366
lhand -10.2017 25.4737
lfingers 7.12502
lthumb 15.7894 54.8498
rfemur -57.2058 6.66148 11.1342
rtibia 33.5014
rfoot -11.9523 -19.4531
rtoes 2.22272
lfemur -54.55 -7.07995 -14.1941
ltibia 30.5561
lfoot -5.22198 17.7376
ltoes -17.2894
481
root 7.37442 17.1166 21.49 36.5526 -2.67048 1.10536
lowerback -16.9838 0.641719 0.232566
upperback -14.7467 0.748105 -1.79784
thorax -6.38491 0.250814 -1.96695
lowerneck -15.5386 -1.36259 -1.19934
upperneck 28.0058 -1.94259 1.05259
head 11.7549 -0.871223 0.312677
rclavicle 5.57839e-015 -1.2921e-014
rhumerus -55.3498 13.2905 -91.4898
rradius 33.235
rwrist 4.52416
rhand -10.7217 -12.2034
rfingers 7.12502
rthumb 15.2886 318.382
lclavicle 5.57839e-015 -1.2921e-014
lhumerus -47.1707 -17.1617 91.2417
lradius 33.5997
lwrist 13.3383
lhand -10.2926 25.2806
lfingers 7.12502
lthumb 15.7018 54.6636
rfemur -56.3888 6.93018 11.0502
rtibia 33.1615
rfoot -12.0518 -19.6815
rtoes 2.32155
lfemur -53.6654 -7.38593 -14.1113
ltibia 30.0737
lfoot -5.11743 18.0089
ltoes -17.288
482
root 7.36731 17.1334 21.5277 36.1301 -2.66753 1.13391
lowerback -17.1702 0.616981 0.207782
upperback -14.835 0.717019 -1.7951
thorax -6.39111 0.236117 -1.95329
lowerneck -15.4631 -1.44899 -1.30615
upperneck 28.2439 -2.08594 1.19497
head 11.8377 -0.92905 0.363307
rclavicle -2.11209e-015 1.37161e-014
rhumerus -55.2174 12.508 -90.6121
rradius 32.9957
rwrist 6.2845
rhand -10.2828 -11.987
rfingers 7.12502
rthumb 15.7113 318.631
lclavicle -2.11209e-015 1.37161e-014
lhumerus -46.9841 -17.0133 91.1209
lradius 32.9204
lwrist 10.7097
lhand -10.4982 24.8451
lfingers 7.12502
lthumb 15.5038 54.2435
rfemur -55.5337 7.1235 11.0359
rtibia 32.6958
rfoot -12.0472 -19.8283
rtoes 2.35831
lfemur -52.733 -7.65497 -14.055
ltibia 29.4503
lfoot -4.94113 18.2162
ltoes -17.2943
483
root 7.35994 17.1485 21.5644 35.7192 -2.66901 1.15948
lowerback -17.3514 0.585059 0.176253
upperback -14.9207 0.67735 -1.78573
thorax -6.39779 0.217967 -1.92982
lowerneck -15.3888 -1.53374 -1.41538
upperneck 28.4624 -2.22741 1.33875
head 11.9139 -0.986177 0.415319
rclavicle 9.06955e-015 -1.09332e-014
rhumerus -55.0905 11.7487 -89.7352
rradius 32.7153
rwrist 8.67632
rhand -10.0118 -11.6563
rfingers 7.12502
rthumb 15.9723 318.982
lclavicle 9.06955e-015 -1.09332e-014
lhumerus -46.8855 -16.8819 91.0049
lradius 32.1758
lwrist 6.69347
lhand -10.7276 24.2854
lfingers 7.12502
lthumb 15.2829 53.7008
rfemur -54.7097 7.25738 11.0746
rtibia 32.2591
rfoot -12.0312 -19.9051
rtoes 2.33836
lfemur -51.8303 -7.8836 -14.0261
ltibia 28.8588
lfoot -4.78416 18.3871
ltoes -17.3201
484
root 7.35244 17.194 21.5993 35.3187 -2.67697 1.18147
lowerback -17.5173 0.546689 0.140467
upperback -15.0091 0.629623 -1.77067
thorax -6.41603 0.196264 -1.8991
lowerneck -15.3039 -1.61862 -1.52715
upperneck 28.6567 -2.36934 1.48337
head 11.9792 -1.04387 0.468252
rclavicle -2.00027e-015 4.37326e-015
rhumerus -54.9755 11.0337 -88.891
rradius 32.4558
rwrist 11.1985
rhand -9.86785 -11.3053
rfingers 7.12502
rthumb 16.1109 319.344
lclavicle -2.00027e-015 4.37326e-015
lhumerus -46.824 -16.6596 90.7764
lradius 31.4208
lwrist 1.69525
lhand -10.8221 23.6532
lfingers 7.12502
lthumb 15.1918 53.0755
rfemur -53.8456 7.35299 11.1519
rtibia 31.7793
rfoot -12.0054 -19.9336
rtoes 2.27692
lfemur -50.8954 -8.07128 -14.0257
ltibia 28.2367
lfoot -4.64986 18.5219
ltoes -17.3522
485
root 7.34468 17.2063 21.6344 34.9284 -2.69387 1.19843
lowerback -17.6694 0.502877 0.102331
upperback -15.0996 0.574947 -1.74958
thorax -6.44443 0.171445 -1.86166
lowerneck -15.2133 -1.70045 -1.64217
upperneck 28.8299 -2.50761 1.6313
head 12.0358 -1.10004 0.523715
rclavicle -7.95139e-015 -7.7526e-015
rhumerus -54.8769 10.4018 -88.1301
rradius 32.255
rwrist 13.443
rhand -9.87517 -11.0096
rfingers 7.12502
rthumb 16.1039 319.639
lclavicle -7.95139e-015 -7.7526e-015
lhumerus -46.7556 -16.271 90.3581
lradius 30.7107
lwrist -3.88714
lhand -10.651 22.9623
lfingers 7.12502
lthumb 15.3567 52.372
rfemur -53.0748 7.42852 11.2461
rtibia 31.3829
rfoot -11.9714 -19.9332
rtoes 2.19106
lfemur -50.0432 -8.21527 -14.0461
ltibia 27.7001
lfoot -4.54007 18.6232
ltoes -17.3893
486
root 7.33676 17.2177 21.6685 34.5521 -2.71809 1.20883
lowerback -17.8127 0.456884 0.0651986
upperback -15.1917 0.517282 -1.72428
thorax -6.47944 0.145195 -1.82081
lowerneck -15.1224 -1.78254 -1.76196
upperneck 28.9863 -2.64655 1.7828
head 12.0864 -1.15671 0.581382
rclavicle -5.54112e-015 7.15625e-015
rhumerus -54.7979 9.88404 -87.502
rradius 32.1315
rwrist 15.1083
rhand -10.0936 -10.8377
rfingers 7.12502
rthumb 15.8935 319.795
lclavicle -5.54112e-015 7.15625e-015
lhumerus -46.659 -15.7129 89.742
lradius 30.0789
lwrist -9.67702
lhand -10.1978 22.1749
lfingers 7.12502
lthumb 15.7932 51.5507
rfemur -52.3298 7.50264 11.3468
rtibia 30.9954
rfoot -11.9329 -19.9236
rtoes 2.11152
lfemur -49.2173 -8.33319 -14.0735
ltibia 27.1833
lfoot -4.44178 18.7099
ltoes -17.4365
487
root 7.32874 17.2284 21.7017 34.1877 -2.75236 1.21515
lowerback -17.9526 0.412338 0.0291333
upperback -15.2786 0.461441 -1.69976
thorax -6.51021 0.119799 -1.78122
lowerneck -15.0289 -1.86782 -1.88599
upperneck 29.1146 -2.791 1.94038
head 12.1262 -1.21572 0.64138
rclavicle 1.71452e-015 0
rhumerus -54.7362 9.4995 -87.0394
rradius 32.0961
rwrist 16.0342
rhand -10.5169 -10.8303
rfingers 7.12502
rthumb 15.4858 319.77
lclavicle 1.71452e-015 0
lhumerus -46.5318 -15.0367 88.9805
lradius 29.5765
lwrist -15.2381
lhand -9.51581 21.3563
lfingers 7.12502
lthumb 16.4499 50.6789
rfemur -51.6863 7.58659 11.4422
rtibia 30.7856
rfoot -11.9875 -19.9096
rtoes 2.03249
lfemur -48.5099 -8.44435 -14.0977
ltibia 26.8851
lfoot -4.4569 18.8359
ltoes -17.4782
488
root 7.32064 17.2384 21.7342 33.8359 -2.79406 1.2146
lowerback -18.0954 0.371716 -0.000285846
upperback -15.3582 0.410113 -1.67656
thorax -6.53101 0.0961451 -1.74621
lowerneck -14.944 -1.95661 -2.01778
upperneck 29.2231 -2.94135 2.10735
head 12.1609 -1.2771 0.705397
rclavicle -7.03201e-015 2.38542e-015
rhumerus -54.6805 9.24916 -86.7465
rradius 32.134
rwrist 16.2119
rhand -11.1536 -10.9892
rfingers 7.12502
rthumb 14.8725 319.565
lclavicle -7.03201e-015 2.38542e-015
lhumerus -46.3923 -14.3281 88.1686
lradius 29.21
lwrist -20.1846
lhand -8.75658 20.564
lfingers 7.12502
lthumb 17.1807 49.8245
rfemur -51.0651 7.68333 11.5338
rtibia 30.5807
rfoot -12.0403 -19.9017
rtoes 1.96719
lfemur -47.8287 -8.55208 -14.1133
ltibia 26.6073
lfoot -4.47819 18.9724
ltoes -17.5049
